# xmcd
#
# Track frame offsets:
#	150
#	15600
#	31425
#	48375
#	64875
#	81450
#	97500
#	112650
#	131325
#	147750
#	163200
#	179025
#	195975
#	212475
#	229050
#	245100
#	260250
#	278925
#
# Disc length: 3941 seconds
#
# Revision: 0
# Processed by: cddbd v1.5.2PL0 Copyright (c) Steve Scherf et al.
# Submitted via: audiograbber 1.83.01
#
DISCID=f70f6312
DTITLE=Country Hits Monthly 0010 - CHM 0010-C
DYEAR=2007
DGENRE=Karaoke
TTITLE0=Lonestar - Tell Her
TTITLE1=Dixie Chicks - With Out You
TTITLE2=George Strait - Go On
TTITLE3=Shania Twain -  I'm Holdin' On To Love
TTITLE4=John Michael Montgomery - The Little Girl
TTITLE5=Reba McEntire - We're So Good Together
TTITLE6=Chad Brock - The Visit
TTITLE7=Travis Tritt - Best of Intentions
TTITLE8=Warren Bros and Sara Evans - That's The Beat Of A Heart
TTITLE9=Lonestar - Tell Her (Vocal)
TTITLE10=Dixie Chicks - With Out You (Vocal)
TTITLE11=George Strait - Go On (Vocal)
TTITLE12=Shania Twain -  I'm Holdin' On To Love (Vocal)
TTITLE13=John Michael Montgomery - The Little Girl (Vocal)
TTITLE14=Reba McEntire - We're So Good Together (Vocal)
TTITLE15=Chad Brock - The Visit (Vocal)
TTITLE16=Travis Tritt - Best of Intentions (Vocal)
TTITLE17=Warren Bros and Sara Evans - That's The Beat Of A Heart (Vocal)
EXTD=
EXTT0=
EXTT1=
EXTT2=
EXTT3=
EXTT4=
EXTT5=
EXTT6=
EXTT7=
EXTT8=
EXTT9=
EXTT10=
EXTT11=
EXTT12=
EXTT13=
EXTT14=
EXTT15=
EXTT16=
EXTT17=
PLAYORDER=
